<?xml version="1.0" standalone="no"?>
<!DOCTYPE svg PUBLIC "-//W3C//DTD SVG 20010904//EN"
 "http://www.w3.org/TR/2001/REC-SVG-20010904/DTD/svg10.dtd">
<svg version="1.0" xmlns="http://www.w3.org/2000/svg"
 width="892.000000pt" height="892.000000pt" viewBox="0 0 892.000000 892.000000"
 preserveAspectRatio="xMidYMid meet">
<metadata>
Created by potrace 1.14, written by Peter Selinger 2001-2017
</metadata>
<g transform="translate(0.000000,892.000000) scale(0.100000,-0.100000)"
fill="#000000" stroke="none">
<path d="M2920 8039 c-833 -484 -1616 -939 -1740 -1012 -124 -72 -307 -178
-408 -235 l-182 -105 0 -1862 c0 -1024 3 -2031 7 -2238 l6 -375 171 -98 c94
-54 270 -154 391 -224 121 -70 643 -369 1160 -665 517 -296 1209 -693 1538
-882 329 -189 606 -343 616 -343 9 0 21 4 26 9 11 10 3737 2176 3793 2205 l32
17 0 1863 c0 1024 -3 2032 -7 2239 l-6 376 -471 269 c-259 149 -653 374 -876
502 -858 493 -1306 749 -1875 1075 -324 186 -599 344 -610 351 -11 8 -26 14
-35 14 -8 0 -697 -396 -1530 -881z m2488 -1869 c507 -288 922 -527 922 -530 0
-3 -156 -96 -347 -207 -192 -111 -613 -355 -936 -542 -324 -188 -592 -341
-596 -341 -4 0 -201 111 -437 246 -236 135 -645 370 -909 521 -264 151 -491
282 -503 290 -27 17 -81 -18 573 366 165 96 518 304 785 460 431 253 487 284
505 273 11 -7 435 -248 943 -536z m1002 -1012 c0 -200 3 -689 7 -1088 l6 -725
-724 -425 c-398 -233 -822 -482 -943 -552 -120 -71 -222 -126 -225 -122 -3 3
-7 497 -9 1098 l-3 1092 48 27 c26 14 449 258 938 541 490 284 893 516 898
516 4 0 7 -163 7 -362z m-3385 54 c1131 -649 1350 -775 1355 -779 4 -4 18
-2183 14 -2183 -1 0 -177 99 -390 221 -214 122 -540 307 -724 411 -184 105
-429 245 -545 310 -115 66 -213 123 -216 126 -4 4 -10 499 -14 1100 l-6 1093
23 -12 c13 -6 239 -136 503 -287z"/>
</g>
</svg>
